<mxfile host="app.diagrams.net" modified="2023-07-11T04:43:07.908Z" agent="Mozilla/5.0 (Windows NT 10.0; Win64; x64; rv:109.0) Gecko/20100101 Firefox/115.0" etag="0t4Wvjpb9fIRkkqfRxV2" version="21.6.1" type="github">
  <diagram name="Página-1" id="Y7IbG_f_YHNodhFU-m-n">
    <mxGraphModel dx="1647" dy="593" grid="1" gridSize="10" guides="1" tooltips="1" connect="1" arrows="1" fold="1" page="1" pageScale="1" pageWidth="827" pageHeight="1169" math="0" shadow="0">
      <root>
        <mxCell id="0" />
        <mxCell id="1" parent="0" />
        <mxCell id="ZkA86gFXyfZh9v1y186l-21" style="rounded=0;orthogonalLoop=1;jettySize=auto;html=1;endArrow=openThin;endFill=0;entryX=0;entryY=0.5;entryDx=0;entryDy=0;" edge="1" parent="1" source="ZkA86gFXyfZh9v1y186l-1" target="ZkA86gFXyfZh9v1y186l-10">
          <mxGeometry relative="1" as="geometry" />
        </mxCell>
        <mxCell id="ZkA86gFXyfZh9v1y186l-1" value="Perito" style="shape=umlActor;verticalLabelPosition=bottom;verticalAlign=top;html=1;" vertex="1" parent="1">
          <mxGeometry x="190" y="200" width="30" height="60" as="geometry" />
        </mxCell>
        <mxCell id="ZkA86gFXyfZh9v1y186l-7" style="rounded=0;orthogonalLoop=1;jettySize=auto;html=1;endArrow=block;endFill=0;" edge="1" parent="1">
          <mxGeometry relative="1" as="geometry">
            <mxPoint x="180" y="230" as="targetPoint" />
            <mxPoint x="100" y="180" as="sourcePoint" />
          </mxGeometry>
        </mxCell>
        <mxCell id="ZkA86gFXyfZh9v1y186l-4" value="Criminal" style="shape=umlActor;verticalLabelPosition=bottom;verticalAlign=top;html=1;" vertex="1" parent="1">
          <mxGeometry x="60" y="150" width="30" height="60" as="geometry" />
        </mxCell>
        <mxCell id="ZkA86gFXyfZh9v1y186l-8" style="rounded=0;orthogonalLoop=1;jettySize=auto;html=1;endArrow=block;endFill=0;" edge="1" parent="1">
          <mxGeometry relative="1" as="geometry">
            <mxPoint x="180" y="240" as="targetPoint" />
            <mxPoint x="100" y="280" as="sourcePoint" />
          </mxGeometry>
        </mxCell>
        <mxCell id="ZkA86gFXyfZh9v1y186l-5" value="Judicial" style="shape=umlActor;verticalLabelPosition=bottom;verticalAlign=top;html=1;" vertex="1" parent="1">
          <mxGeometry x="60" y="240" width="30" height="60" as="geometry" />
        </mxCell>
        <mxCell id="ZkA86gFXyfZh9v1y186l-9" value="Sistema de Estruturação de Laudos Periciais" style="shape=umlFrame;whiteSpace=wrap;html=1;pointerEvents=0;width=257;height=40;" vertex="1" parent="1">
          <mxGeometry x="280" y="120" width="490" height="450" as="geometry" />
        </mxCell>
        <mxCell id="ZkA86gFXyfZh9v1y186l-18" value="" style="edgeStyle=orthogonalEdgeStyle;rounded=0;orthogonalLoop=1;jettySize=auto;html=1;endArrow=open;endFill=0;dashed=1;entryX=1;entryY=0.5;entryDx=0;entryDy=0;exitX=0.955;exitY=0.723;exitDx=0;exitDy=0;exitPerimeter=0;" edge="1" parent="1" source="ZkA86gFXyfZh9v1y186l-10" target="ZkA86gFXyfZh9v1y186l-16">
          <mxGeometry relative="1" as="geometry">
            <mxPoint x="466.0799999999997" y="271.28999999999996" as="sourcePoint" />
            <mxPoint x="449.7431151624435" y="440.0046954641367" as="targetPoint" />
            <Array as="points">
              <mxPoint x="470" y="271" />
              <mxPoint x="500" y="270" />
              <mxPoint x="500" y="495" />
            </Array>
          </mxGeometry>
        </mxCell>
        <mxCell id="ZkA86gFXyfZh9v1y186l-19" value="&amp;lt;&amp;lt;include&amp;gt;&amp;gt;" style="edgeLabel;html=1;align=center;verticalAlign=middle;resizable=0;points=[];" vertex="1" connectable="0" parent="ZkA86gFXyfZh9v1y186l-18">
          <mxGeometry x="-0.0154" y="1" relative="1" as="geometry">
            <mxPoint x="-1" y="28" as="offset" />
          </mxGeometry>
        </mxCell>
        <mxCell id="ZkA86gFXyfZh9v1y186l-10" value="Manter Laudos Periciais" style="ellipse;whiteSpace=wrap;html=1;" vertex="1" parent="1">
          <mxGeometry x="330" y="220" width="140" height="70" as="geometry" />
        </mxCell>
        <mxCell id="ZkA86gFXyfZh9v1y186l-20" value="" style="rounded=0;orthogonalLoop=1;jettySize=auto;html=1;entryX=0;entryY=0.5;entryDx=0;entryDy=0;endArrow=openThin;endFill=0;" edge="1" parent="1" source="ZkA86gFXyfZh9v1y186l-14" target="ZkA86gFXyfZh9v1y186l-16">
          <mxGeometry relative="1" as="geometry" />
        </mxCell>
        <mxCell id="ZkA86gFXyfZh9v1y186l-14" value="Solicitantes" style="shape=umlActor;verticalLabelPosition=bottom;verticalAlign=top;html=1;" vertex="1" parent="1">
          <mxGeometry x="190" y="460" width="30" height="60" as="geometry" />
        </mxCell>
        <mxCell id="ZkA86gFXyfZh9v1y186l-16" value="Solicitar Perícias" style="ellipse;whiteSpace=wrap;html=1;" vertex="1" parent="1">
          <mxGeometry x="330" y="460" width="140" height="70" as="geometry" />
        </mxCell>
        <mxCell id="ZkA86gFXyfZh9v1y186l-25" style="rounded=0;orthogonalLoop=1;jettySize=auto;html=1;endArrow=blockThin;endFill=0;" edge="1" parent="1" source="ZkA86gFXyfZh9v1y186l-22">
          <mxGeometry relative="1" as="geometry">
            <mxPoint x="180" y="490" as="targetPoint" />
          </mxGeometry>
        </mxCell>
        <mxCell id="ZkA86gFXyfZh9v1y186l-22" value="Delegado" style="shape=umlActor;verticalLabelPosition=bottom;verticalAlign=top;html=1;" vertex="1" parent="1">
          <mxGeometry x="50" y="380" width="30" height="60" as="geometry" />
        </mxCell>
        <mxCell id="ZkA86gFXyfZh9v1y186l-26" style="edgeStyle=orthogonalEdgeStyle;rounded=0;orthogonalLoop=1;jettySize=auto;html=1;endArrow=blockThin;endFill=0;" edge="1" parent="1" source="ZkA86gFXyfZh9v1y186l-23">
          <mxGeometry relative="1" as="geometry">
            <mxPoint x="180" y="500" as="targetPoint" />
            <Array as="points">
              <mxPoint x="140" y="500" />
              <mxPoint x="140" y="500" />
            </Array>
          </mxGeometry>
        </mxCell>
        <mxCell id="ZkA86gFXyfZh9v1y186l-23" value="Ministério Publico" style="shape=umlActor;verticalLabelPosition=bottom;verticalAlign=top;html=1;" vertex="1" parent="1">
          <mxGeometry x="50" y="470" width="30" height="60" as="geometry" />
        </mxCell>
        <mxCell id="ZkA86gFXyfZh9v1y186l-28" style="rounded=0;orthogonalLoop=1;jettySize=auto;html=1;endArrow=blockThin;endFill=0;" edge="1" parent="1">
          <mxGeometry relative="1" as="geometry">
            <mxPoint x="180" y="510" as="targetPoint" />
            <mxPoint x="80" y="583" as="sourcePoint" />
          </mxGeometry>
        </mxCell>
        <mxCell id="ZkA86gFXyfZh9v1y186l-24" value="Ministério Publico" style="shape=umlActor;verticalLabelPosition=bottom;verticalAlign=top;html=1;" vertex="1" parent="1">
          <mxGeometry x="50" y="555" width="30" height="60" as="geometry" />
        </mxCell>
        <mxCell id="ZkA86gFXyfZh9v1y186l-31" value="" style="edgeStyle=orthogonalEdgeStyle;rounded=0;orthogonalLoop=1;jettySize=auto;html=1;endArrow=blockThin;endFill=0;" edge="1" parent="1">
          <mxGeometry relative="1" as="geometry">
            <mxPoint x="205" y="310" as="sourcePoint" />
            <mxPoint x="205" y="280" as="targetPoint" />
          </mxGeometry>
        </mxCell>
        <mxCell id="ZkA86gFXyfZh9v1y186l-34" value="" style="rounded=0;orthogonalLoop=1;jettySize=auto;html=1;endArrow=blockThin;endFill=0;" edge="1" parent="1" source="ZkA86gFXyfZh9v1y186l-30" target="ZkA86gFXyfZh9v1y186l-33">
          <mxGeometry relative="1" as="geometry" />
        </mxCell>
        <mxCell id="ZkA86gFXyfZh9v1y186l-30" value="Administrador &lt;br&gt;de Instituição" style="shape=umlActor;verticalLabelPosition=bottom;verticalAlign=top;html=1;" vertex="1" parent="1">
          <mxGeometry x="190" y="320" width="30" height="60" as="geometry" />
        </mxCell>
        <mxCell id="ZkA86gFXyfZh9v1y186l-32" value="" style="edgeStyle=orthogonalEdgeStyle;rounded=0;orthogonalLoop=1;jettySize=auto;html=1;endArrow=blockThin;endFill=0;" edge="1" parent="1">
          <mxGeometry relative="1" as="geometry">
            <mxPoint x="210" y="420" as="sourcePoint" />
            <mxPoint x="210" y="450" as="targetPoint" />
            <Array as="points">
              <mxPoint x="210" y="440" />
              <mxPoint x="210" y="440" />
            </Array>
          </mxGeometry>
        </mxCell>
        <mxCell id="ZkA86gFXyfZh9v1y186l-33" value="Efetuar Login" style="ellipse;whiteSpace=wrap;html=1;" vertex="1" parent="1">
          <mxGeometry x="330" y="300" width="140" height="70" as="geometry" />
        </mxCell>
        <mxCell id="ZkA86gFXyfZh9v1y186l-37" style="edgeStyle=orthogonalEdgeStyle;rounded=0;orthogonalLoop=1;jettySize=auto;html=1;exitX=0;exitY=0.5;exitDx=0;exitDy=0;entryX=1;entryY=0.5;entryDx=0;entryDy=0;dashed=1;" edge="1" parent="1" source="ZkA86gFXyfZh9v1y186l-35" target="ZkA86gFXyfZh9v1y186l-10">
          <mxGeometry relative="1" as="geometry" />
        </mxCell>
        <mxCell id="ZkA86gFXyfZh9v1y186l-38" value="&amp;lt;&amp;lt;include&amp;gt;&amp;gt;" style="edgeLabel;html=1;align=center;verticalAlign=middle;resizable=0;points=[];" vertex="1" connectable="0" parent="ZkA86gFXyfZh9v1y186l-37">
          <mxGeometry x="-0.037" y="-1" relative="1" as="geometry">
            <mxPoint as="offset" />
          </mxGeometry>
        </mxCell>
        <mxCell id="ZkA86gFXyfZh9v1y186l-35" value="Encaminhar Laudos" style="ellipse;whiteSpace=wrap;html=1;" vertex="1" parent="1">
          <mxGeometry x="560" y="220" width="140" height="70" as="geometry" />
        </mxCell>
        <mxCell id="ZkA86gFXyfZh9v1y186l-39" value="Definir " style="ellipse;whiteSpace=wrap;html=1;" vertex="1" parent="1">
          <mxGeometry x="330" y="375" width="140" height="70" as="geometry" />
        </mxCell>
        <mxCell id="ZkA86gFXyfZh9v1y186l-40" value="" style="rounded=0;orthogonalLoop=1;jettySize=auto;html=1;endArrow=blockThin;endFill=0;entryX=-0.021;entryY=0.486;entryDx=0;entryDy=0;entryPerimeter=0;" edge="1" parent="1" source="ZkA86gFXyfZh9v1y186l-30" target="ZkA86gFXyfZh9v1y186l-39">
          <mxGeometry relative="1" as="geometry">
            <mxPoint x="230" y="359" as="sourcePoint" />
            <mxPoint x="341" y="350" as="targetPoint" />
          </mxGeometry>
        </mxCell>
      </root>
    </mxGraphModel>
  </diagram>
</mxfile>
